<?xml version="1.0" standalone="no"?>
<!DOCTYPE svg PUBLIC "-//W3C//DTD SVG 20010904//EN"
 "http://www.w3.org/TR/2001/REC-SVG-20010904/DTD/svg10.dtd">
<svg version="1.0" xmlns="http://www.w3.org/2000/svg"
 width="300.000000pt" height="300.000000pt" viewBox="0 0 300.000000 300.000000"
 preserveAspectRatio="xMidYMid meet">
<metadata>
Created by potrace 1.10, written by Peter Selinger 2001-2011
</metadata>
<g transform="translate(0.000000,300.000000) scale(0.100000,-0.100000)"
fill="#000000" stroke="none">
<path d="M2105 1981 c-3 -12 -3 -26 0 -31 8 -14 46 -3 62 18 7 8 16 12 20 8 5
-4 0 -13 -10 -20 -23 -17 -22 -29 2 -21 13 4 28 -4 49 -25 30 -30 55 -32 66
-5 6 17 -19 39 -38 32 -10 -4 -13 -1 -9 8 3 9 -2 17 -13 21 -11 3 -26 9 -35
14 -9 5 -26 6 -38 3 -12 -3 -27 0 -35 6 -11 10 -16 8 -21 -8z m25 -16 c0 -8
-4 -15 -10 -15 -5 0 -10 7 -10 15 0 8 5 15 10 15 6 0 10 -7 10 -15z m100 -20
c-7 -9 -15 -13 -17 -11 -7 7 7 26 19 26 6 0 6 -6 -2 -15z m50 -35 c0 -5 -7
-10 -16 -10 -8 0 -12 5 -9 10 3 6 10 10 16 10 5 0 9 -4 9 -10z"/>
<path d="M2041 1956 c-8 -10 -9 -16 -1 -21 5 -3 10 -11 10 -17 0 -7 -5 -6 -15
2 -11 10 -17 9 -29 -3 -13 -13 -13 -16 2 -30 18 -15 42 -12 42 6 0 6 8 19 17
29 15 17 15 20 1 34 -13 13 -16 13 -27 0z m29 -16 c0 -5 -4 -10 -10 -10 -5 0
-10 5 -10 10 0 6 5 10 10 10 6 0 10 -4 10 -10z m-35 -40 c3 -5 -1 -10 -9 -10
-9 0 -16 5 -16 10 0 6 4 10 9 10 6 0 13 -4 16 -10z"/>
<path d="M2069 1880 c-17 -23 -28 -28 -46 -24 -32 8 -56 -12 -43 -37 8 -14 2
-36 -28 -96 -22 -43 -47 -100 -57 -128 -25 -72 -36 -93 -52 -99 -8 -3 -11 -1
-8 4 4 6 8 23 10 39 2 16 28 84 58 152 30 67 53 129 50 136 -9 22 -50 27 -69
8 -9 -9 -32 -51 -50 -93 -31 -72 -36 -77 -66 -79 -40 -4 -92 -44 -135 -108
-33 -47 -33 -47 -31 -17 3 39 -20 81 -48 88 -12 3 -36 -2 -53 -10 -24 -13 -36
-14 -51 -6 -28 15 -59 -4 -66 -39 -3 -15 -16 -41 -29 -57 l-24 -29 14 40 c27
75 15 112 -42 129 -46 14 -131 -50 -176 -134 -22 -41 -28 -36 -17 15 7 32 5
44 -11 67 -11 15 -27 28 -35 28 -16 0 -19 26 -5 35 19 11 52 118 46 147 -8 37
-47 48 -76 22 -29 -26 -84 -128 -115 -212 -46 -125 -154 -212 -200 -161 -43
48 19 256 92 304 37 24 42 11 14 -40 -20 -36 -22 -46 -11 -59 21 -25 48 -19
77 19 34 45 44 117 20 144 -63 70 -193 -2 -262 -147 -67 -138 -51 -251 40
-296 34 -17 45 -18 83 -8 24 7 54 22 66 33 40 38 53 40 67 14 24 -45 52 -30
84 43 22 48 34 55 28 14 -7 -53 50 -95 92 -66 16 11 23 10 43 -6 24 -19 53
-17 87 6 15 10 23 10 41 -2 17 -11 29 -12 51 -4 15 6 38 9 51 5 25 -6 36 4 84
73 36 52 49 53 43 5 -4 -28 1 -42 18 -60 20 -21 29 -24 65 -18 25 3 51 1 63
-5 17 -9 28 -7 57 10 32 19 37 19 59 5 28 -18 75 -20 92 -3 9 9 19 7 45 -7 30
-16 36 -16 62 -2 27 14 33 13 72 -6 41 -20 43 -20 85 -2 24 10 55 31 70 47 32
33 38 35 38 9 0 -30 28 -51 67 -51 29 0 44 8 79 44 47 46 53 66 29 86 -12 10
-20 6 -44 -20 -27 -30 -50 -30 -30 0 15 26 10 57 -16 88 -14 17 -25 37 -25 45
0 8 -7 20 -15 27 -16 14 -16 28 3 49 7 7 11 20 8 28 -3 7 0 16 8 19 16 6 17
91 1 98 -22 8 -41 -12 -29 -31 14 -22 -6 -62 -52 -108 -26 -26 -41 -33 -66
-32 -37 3 -58 13 -58 29 0 6 11 8 26 5 34 -6 88 16 108 45 34 49 8 108 -47
108 -14 0 -29 5 -32 10 -13 21 -54 10 -76 -20z m70 -2 c6 -7 26 -13 44 -13 27
0 32 -4 35 -27 4 -30 -17 -53 -67 -74 l-31 -13 -26 50 c-24 48 -24 52 -8 70
20 22 35 24 53 7z m156 -28 c-3 -5 -10 -10 -16 -10 -5 0 -9 5 -9 10 0 6 7 10
16 10 8 0 12 -4 9 -10z m-280 -20 c-3 -5 -10 -10 -16 -10 -5 0 -9 5 -9 10 0 6
7 10 16 10 8 0 12 -4 9 -10z m-1125 -15 c24 -29 -20 -145 -55 -145 -20 0 -19
4 10 48 13 20 26 48 27 62 2 20 -2 26 -24 28 -38 5 -91 -47 -132 -129 -76
-153 -47 -281 59 -255 31 8 92 61 100 87 4 10 11 19 16 19 13 0 -8 -39 -40
-73 -71 -77 -170 -76 -207 1 -47 99 26 282 141 353 36 23 88 25 105 4z m190
-22 c-1 -51 -30 -113 -80 -166 -41 -45 -61 -90 -59 -137 0 -15 3 -19 6 -10 33
93 83 141 124 119 22 -11 22 -26 3 -116 -13 -66 44 -32 96 57 42 71 124 112
158 78 17 -17 15 -48 -3 -48 -8 0 -14 3 -14 8 4 22 -3 32 -24 32 -53 0 -136
-141 -97 -165 11 -7 73 50 103 95 12 18 20 21 28 13 8 -8 7 -17 -5 -34 -19
-28 -21 -69 -3 -69 7 0 23 7 35 16 12 8 22 11 22 5 0 -15 -42 -41 -67 -41 -13
0 -28 9 -35 19 -12 19 -13 19 -41 -5 -37 -31 -64 -31 -79 0 -9 22 -13 23 -25
10 -8 -8 -26 -17 -40 -20 -36 -9 -54 16 -42 59 16 55 12 79 -13 75 -15 -2 -32
-23 -57 -72 -20 -38 -40 -69 -46 -68 -6 2 -10 32 -10 70 1 76 39 182 100 277
42 66 65 72 65 18z m850 24 c0 -7 -15 -44 -33 -82 -58 -122 -87 -202 -87 -244
0 -23 4 -41 10 -41 28 0 71 61 99 138 34 95 89 198 121 227 18 16 23 17 30 5
6 -8 10 -24 10 -35 0 -35 -67 -162 -109 -208 -32 -35 -41 -52 -41 -81 0 -75
52 -52 97 42 42 88 143 136 151 71 4 -35 -30 -74 -84 -95 -39 -15 -45 -21 -42
-43 2 -21 9 -27 35 -29 57 -6 135 89 152 186 6 31 28 43 24 12 -1 -8 7 -20 18
-28 34 -24 40 -47 24 -92 -8 -24 -15 -49 -15 -56 0 -26 33 -14 72 26 45 48 52
36 8 -14 -37 -42 -85 -56 -108 -32 -15 15 -15 20 1 65 21 59 21 75 3 90 -11 9
-17 2 -31 -35 -44 -117 -154 -179 -209 -119 -23 25 -23 25 -41 5 -31 -34 -85
-23 -85 17 l0 25 -35 -31 c-56 -49 -104 -34 -92 29 6 30 6 29 -37 -15 -46 -49
-78 -57 -98 -26 -12 19 -12 19 -36 0 -30 -23 -46 -24 -66 -4 -11 12 -12 23 -5
47 13 47 11 68 -7 75 -18 6 -74 -44 -105 -94 -12 -18 -26 -33 -34 -33 -16 0
-15 51 1 71 7 8 15 29 19 47 5 22 12 32 26 32 22 0 23 -8 9 -46 -10 -24 -6
-23 30 14 60 62 120 52 106 -18 -3 -16 -9 -43 -12 -60 -5 -23 -3 -30 9 -30 17
0 40 27 90 105 36 57 93 93 123 80 17 -8 17 -9 -5 -13 -40 -6 -69 -31 -91 -76
-26 -54 -26 -86 -1 -86 35 0 87 76 141 208 49 120 72 162 92 162 4 0 8 -6 8
-13z m370 -17 c0 -5 -7 -10 -15 -10 -8 0 -15 5 -15 10 0 6 7 10 15 10 8 0 15
-4 15 -10z m-25 -50 c3 -5 2 -10 -4 -10 -5 0 -13 5 -16 10 -3 6 -2 10 4 10 5
0 13 -4 16 -10z m-25 -41 c0 -4 -7 -6 -15 -3 -8 4 -15 10 -15 15 0 4 7 6 15 3
8 -4 15 -10 15 -15z m-150 -8 c0 -6 -4 -13 -10 -16 -5 -3 -10 1 -10 9 0 9 5
16 10 16 6 0 10 -4 10 -9z m111 -14 c12 -10 13 -17 5 -38 l-11 -26 -23 29
c-13 15 -19 28 -13 28 5 0 13 -4 16 -10 3 -5 11 -10 17 -10 6 0 3 9 -7 20 -20
22 -9 27 16 7z m-61 -7 c0 -5 -4 -10 -10 -10 -5 0 -10 5 -10 10 0 6 5 10 10
10 6 0 10 -4 10 -10z m-34 -13 c4 -4 -4 -11 -17 -16 -34 -13 -73 -57 -103
-118 -29 -59 -36 -64 -36 -29 0 13 16 44 36 68 20 23 43 57 52 75 11 24 21 31
38 29 13 -2 27 -6 30 -9z m-367 -114 c-12 -21 -28 -45 -36 -53 -24 -26 -15 12
12 53 33 48 53 48 24 0z m-490 -15 c-18 -24 -34 -45 -36 -47 -2 -2 -6 -2 -9 2
-8 7 32 74 49 81 28 11 27 4 -4 -36z m896 -37 c-13 -22 -67 -43 -78 -32 -8 8
-6 11 7 11 10 0 29 9 43 20 26 20 41 21 28 1z"/>
<path d="M2094 1856 c-3 -8 2 -29 13 -46 15 -25 22 -30 43 -25 59 15 78 73 20
61 -19 -3 -30 -1 -34 9 -7 19 -35 19 -42 1z m56 -36 c8 -5 11 -10 5 -10 -5 0
-17 5 -25 10 -8 5 -10 10 -5 10 6 0 17 -5 25 -10z"/>
<path d="M1038 1758 c-19 -30 -68 -125 -68 -134 0 -26 67 70 89 129 13 33 -1
36 -21 5z"/>
<path d="M2039 1769 c-22 -32 -63 -115 -83 -164 l-16 -40 29 34 c37 42 93 156
89 178 -2 14 -6 13 -19 -8z"/>
<path d="M2103 1598 c-28 -31 -57 -78 -51 -83 9 -9 86 49 97 72 14 31 14 33
-7 33 -10 0 -28 -10 -39 -22z"/>
<path d="M1439 1170 c-8 -5 -32 -7 -54 -6 -45 4 -65 -11 -65 -48 0 -29 27 -59
43 -49 14 9 44 8 80 -2 17 -4 33 -3 42 5 8 6 18 9 23 6 16 -10 82 -15 82 -6 0
5 -5 10 -10 12 -15 5 -17 60 -2 65 8 3 12 -7 12 -30 0 -40 19 -60 52 -55 20 3
23 10 26 50 3 39 0 49 -18 58 -13 7 -26 8 -33 3 -13 -10 -138 -9 -154 0 -4 3
-15 2 -24 -3z m51 -49 c0 -24 -25 -45 -45 -37 -18 6 -20 47 -3 64 15 15 48 -3
48 -27z m170 29 c0 -5 -7 -10 -15 -10 -8 0 -15 -5 -15 -11 0 -5 4 -8 9 -4 5 3
12 1 16 -5 3 -5 -2 -11 -12 -11 -17 -1 -17 -2 0 -6 23 -6 22 -23 -3 -23 -16 0
-20 7 -20 34 0 24 5 36 18 39 9 3 18 5 20 6 1 0 2 -3 2 -9z m-300 -15 c0 -9 6
-12 15 -9 8 4 12 10 9 15 -3 5 0 9 5 9 6 0 11 -16 11 -36 0 -21 -4 -33 -10
-29 -6 4 -8 11 -5 16 4 5 -1 9 -9 9 -9 0 -16 -7 -16 -15 0 -8 -4 -15 -9 -15
-5 0 -9 16 -8 35 1 33 17 52 17 20z m179 3 c-1 -7 -5 -24 -9 -38 -7 -22 -8
-21 -9 13 -1 20 4 37 9 37 6 0 10 -6 9 -12z m21 -44 c0 -8 -4 -12 -10 -9 -5 3
-10 13 -10 21 0 8 5 12 10 9 6 -3 10 -13 10 -21z"/>
<path d="M1440 1120 c0 -15 5 -20 18 -18 9 2 17 10 17 18 0 8 -8 16 -17 18
-13 2 -18 -3 -18 -18z"/>
</g>
</svg>
